<svg width="110" height="16" viewBox="0 0 110 16" fill="none" xmlns="http://www.w3.org/2000/svg">
<path fill-rule="evenodd" clip-rule="evenodd" d="M21.8754 10.2824C23.1408 10.2824 24.1655 9.25977 24.1655 8C24.1655 6.74022 23.1394 5.71755 21.8754 5.71755C20.6115 5.71755 19.5854 6.74022 19.5854 8C19.5854 9.25977 20.6115 10.2824 21.8754 10.2824ZM29.9019 8C29.9019 12.4178 26.3079 16 21.8754 16C17.443 16 13.849 12.4178 13.849 8C13.849 3.58222 17.443 0 21.8754 0C26.3079 0 29.9019 3.58222 29.9019 8ZM66.3486 8C66.3486 9.2612 65.3225 10.2824 64.0586 10.2824C62.7946 10.2824 61.7686 9.25977 61.7686 8C61.7686 6.74022 62.7946 5.71755 64.0586 5.71755C65.3225 5.71755 66.3486 6.74022 66.3486 8ZM64.0586 16C68.491 16 72.0851 12.4178 72.0851 8C72.0851 3.58222 68.491 0 64.0586 0C59.6262 0 56.0321 3.58222 56.0321 8C56.0321 12.4178 59.6247 16 64.0586 16ZM103.467 8C103.467 9.2612 102.441 10.2824 101.177 10.2824C99.9134 10.2824 98.8873 9.25977 98.8873 8C98.8873 6.74022 99.9134 5.71755 101.177 5.71755C102.441 5.71755 103.467 6.74022 103.467 8ZM101.177 16C105.61 16 109.204 12.4178 109.204 8C109.204 3.58222 105.61 0 101.176 0C96.7421 0 93.1494 3.58222 93.1494 8C93.1494 12.4178 96.7445 16 101.177 16ZM52.6702 2.13533C51.4134 0.767006 49.6823 0.375647 48.0916 0.375647H45.1209V3.12373C44.9346 2.78236 44.7024 2.44956 44.413 2.13533C43.1562 0.767006 41.4251 0.375647 39.8344 0.375647H37.4254V0.372791H31.441V15.5844H37.4254V6.3403H39.8344C39.843 6.3403 39.8516 6.3403 39.8587 6.3403V15.5844H45.8431V6.3403H48.1002H48.1145V15.5844H54.0989V6.30316C54.0989 5.09195 53.8754 3.45081 52.6673 2.13533H52.6702ZM74.9039 2.22389C76.1607 0.855561 77.8918 0.464203 79.4825 0.464203H82.4517V6.42885H79.4681H79.4567V15.6729H73.4723V6.39172C73.4723 5.1805 73.6958 3.53937 74.9024 2.22389H74.9039ZM89.3318 0.464203C87.7411 0.464203 86.01 0.854133 84.7532 2.22389C83.5451 3.53937 83.3216 5.1805 83.3216 6.39172V15.6729H89.306V6.43028C89.3146 6.43028 89.3232 6.43028 89.3303 6.43028H92.301V0.464203H89.3303H89.3318ZM9.50253 6.37886V15.5187H3.51813V6.37886H0V0.414212H3.51669V0.411355H9.50109V0.414212H13.0192V6.37886H9.50109H9.50253Z" fill="white"/>
</svg>
