<svg width="101" height="51" viewBox="0 0 101 51" fill="none" xmlns="http://www.w3.org/2000/svg">
<path d="M1.29061 0.57916C1.11375 0.674668 0.975684 0.815473 0.881442 0.993676C0.7872 1.17332 0.736802 1.35154 0.736565 1.84245L0.736572 3.3166C0.736334 3.80966 0.784406 3.98506 0.88135 4.16479C0.973263 4.34452 1.1112 4.48331 1.29083 4.58186C1.46688 4.67826 1.64223 4.72722 2.12595 4.72673L99.3422 4.7758C99.8252 4.77603 100.001 4.72724 100.178 4.63102C100.352 4.53048 100.493 4.39254 100.588 4.21147C100.683 4.03398 100.731 3.85575 100.734 3.36701L100.734 1.88926C100.734 1.39764 100.683 1.22368 100.591 1.04107C100.496 0.866369 100.355 0.721836 100.181 0.626158C100.001 0.52976 99.828 0.480799 99.3457 0.480566L2.12874 0.43222C1.64215 0.432704 1.46962 0.483653 1.29061 0.57916ZM0.72833 14.4406L0.716948 38.0271C0.717421 38.5366 1.05574 38.9774 1.54299 39.0998L4.01015 39.7155C4.59227 39.861 5.17894 39.5026 5.32369 38.9105C5.34601 38.8264 5.35612 38.7387 5.35616 38.6481L5.3562 31.1113L9.51703 31.1112C10.1165 31.1115 10.6033 30.6179 10.6036 30.0106L10.6068 27.9119C10.6063 27.3074 10.12 26.8148 9.51982 26.8145L5.359 26.8111L5.36414 17.6384L9.73987 17.6413C10.3393 17.6416 10.8247 17.1473 10.825 16.5443L10.8253 14.4455C10.8249 13.8375 10.3392 13.3442 9.74267 13.3439L1.81489 13.3408C1.21761 13.3405 0.73078 13.8319 0.72833 14.4406ZM18.7112 13.3496C14.9141 13.3471 13.0394 15.2422 13.0368 19.0825L13.0257 37.6089C13.026 41.4506 14.8576 42.4542 18.6945 43.417L21.184 44.0557C24.99 45.0027 26.8572 42.1588 26.8605 38.3157L26.8684 19.0913C26.8709 15.2511 24.9916 13.3498 21.1973 13.3501L18.7112 13.3496ZM20.4364 39.7802L19.4913 39.5419C18.2969 39.233 17.7302 38.5664 17.7315 37.3287L17.7402 19.23C17.7401 17.9901 18.3003 17.4154 19.5027 17.4189L20.4493 17.4186C21.6072 17.4184 22.164 17.993 22.1641 19.2328L22.1557 38.0338C22.1559 39.1011 21.7409 39.8413 20.8834 39.8416C20.7447 39.8415 20.5952 39.822 20.4364 39.7802ZM29.4954 19.0926L29.4866 41.8287C29.4833 45.669 31.4098 46.6237 35.154 47.5707L37.6427 48.2051C41.4372 49.1664 43.3117 46.3103 43.3142 42.4679L43.3255 19.0957C43.3281 15.2576 41.4531 13.3577 37.6566 13.3581L35.1698 13.354C31.3726 13.3529 29.4965 15.2509 29.4954 19.0926ZM36.893 43.9368L35.9494 43.692C34.747 43.3938 34.1874 42.7855 34.1873 41.5485L34.1981 19.2365C34.1979 17.9995 34.7574 17.4262 35.9599 17.4261L36.9086 17.4258C38.068 17.4257 38.6226 18.0024 38.6227 19.24L38.6138 42.1839C38.6111 43.2498 38.1989 43.9949 37.3443 43.9952C37.2063 43.9952 37.0561 43.9757 36.893 43.9368ZM46.2336 14.4648L46.2182 49.4045C46.2165 50.0126 46.7021 50.5066 47.3016 50.5069L53.2377 50.5068C57.773 50.5098 59.9102 48.297 59.9116 43.7352L59.9245 20.1459C59.9245 15.5811 57.7887 13.3671 53.257 13.3656L47.3209 13.3606C46.7186 13.3603 46.2332 13.8545 46.2336 14.4648ZM50.9189 46.2975L50.9356 17.5735L52.6606 17.575C54.5193 17.5745 55.3605 18.4575 55.3575 20.3104L55.3484 43.5662C55.3454 45.4184 54.5054 46.2985 52.6468 46.299L50.9189 46.2975ZM63.7802 13.3707C63.1772 13.3704 62.6918 13.8625 62.6922 14.4713L62.6779 47.0614C62.6784 47.6702 63.164 48.1628 63.7606 48.1631C63.8497 48.1631 63.9374 48.1538 64.0229 48.1308L71.672 46.2126C72.158 46.0921 72.501 45.6495 72.5005 45.1449L72.5007 43.2956C72.501 42.6897 72.0132 42.1993 71.4138 42.199C71.3275 42.1989 71.2355 42.209 71.1514 42.2312L67.3481 43.1947L67.3634 14.4735C67.3629 13.8655 66.8766 13.3707 66.2764 13.3704L63.7802 13.3707ZM74.5861 14.4763L74.5725 44.0678C74.5729 44.6795 75.0593 45.1699 75.6565 45.1702C75.745 45.1702 75.8326 45.1552 75.9203 45.138L84.2603 43.0504C84.744 42.9306 85.0849 42.4895 85.0852 41.9835L85.0854 40.1248C85.0849 39.5168 84.6 39.0249 84.0013 39.0246C83.9122 39.0253 83.823 39.036 83.7389 39.0583L79.2606 40.1939L79.2664 31.1449L83.6975 31.1477C84.2983 31.1473 84.7837 30.653 84.7869 30.0457L84.7872 27.952C84.7868 27.3432 84.2997 26.8499 83.7003 26.8503L79.2678 26.8475L79.2707 17.6741L83.9232 17.6771C84.5241 17.6766 85.0109 17.1874 85.0112 16.5772L85.0115 14.4806C85.011 13.8725 84.5254 13.3792 83.926 13.3797L75.6726 13.375C75.0732 13.3747 74.5856 13.8682 74.5861 14.4763ZM87.4487 19.122L87.4468 21.4809C87.4471 23.8679 88.0509 25.3229 90.1367 26.8232L94.8212 30.3143C95.687 30.9767 96.1215 31.5512 96.1216 32.8305L96.1215 34.539C96.1188 35.7328 95.5365 36.0517 94.3403 36.3487L93.7286 36.4957C92.513 36.8064 91.9505 36.239 91.9504 35.0495L91.9533 32.0393C91.9536 31.4313 91.4694 30.938 90.8714 30.9384L88.5304 30.938C87.9281 30.9384 87.4406 31.4313 87.4403 32.035L87.4402 35.0854C87.4377 38.8811 89.2727 41.7361 93.0351 40.7798L95.0751 40.2748C98.8346 39.325 100.718 38.3779 100.717 34.5376L100.717 32.1701C100.72 29.6552 100.07 28.3317 98.0321 26.8278L93.3475 23.3374C92.4803 22.7196 92.0443 22.1034 92.0442 20.8219L92.0471 19.2536C92.047 18.0612 92.6129 17.4901 93.7838 17.4899L94.348 17.4902C95.5188 17.49 96.0828 18.0646 96.0829 19.2563L96.0796 21.7101C96.08 22.3181 96.5649 22.8129 97.1651 22.8131L99.552 22.8129C100.15 22.8132 100.637 22.3182 100.639 21.7115L100.64 19.0824C100.643 15.2838 98.7753 13.3876 95.0457 13.3872L93.0922 13.3827C89.3159 13.383 87.4512 15.2781 87.4487 19.122Z" fill="#67EF3E"/>
</svg>
