<svg width="40" height="40" viewBox="0 0 40 40" fill="none" xmlns="http://www.w3.org/2000/svg">
<path d="M27.6557 8.24611C27.6556 8.24604 27.6559 8.24618 27.6557 8.24611C27.0249 8.419 26.4182 8.71975 25.8736 9.15236C25.4051 9.52462 25.0213 9.96407 24.7251 10.4461C24.7248 10.4459 24.7246 10.4458 24.7243 10.4457C25.0204 9.96383 25.4041 9.52451 25.8726 9.15233C26.4174 8.71956 27.0246 8.41897 27.6557 8.24611Z" fill="#273F2B"/>
<path d="M23.7396 6.59878C22.6644 6.33169 21.5398 6.18994 20.382 6.18994C12.7159 6.18994 6.50131 12.4045 6.50131 20.0706C6.50131 22.4338 7.09185 24.659 8.13341 26.6067L6.50131 33.9513L13.8458 32.3192C15.7936 33.3608 18.0188 33.9513 20.382 33.9513C28.048 33.9513 34.2626 27.7366 34.2626 20.0706C34.2626 19.876 34.2586 19.6823 34.2507 19.4896C34.2173 19.517 34.1836 19.5442 34.1496 19.5711C33.1573 20.3595 32.0404 20.8847 30.8833 21.1564C30.3398 26.4764 25.8455 30.6271 20.382 30.6271C18.5789 30.6271 16.8907 30.1778 15.4134 29.3878L14.3272 28.807L10.8795 29.5731L11.6456 26.1254L11.0648 25.0392C10.2748 23.5619 9.82546 21.8737 9.82546 20.0706C9.82546 14.2404 14.5518 9.51409 20.382 9.51409C20.7348 9.51409 21.0837 9.53141 21.4276 9.56523C21.9445 8.4462 22.7188 7.4259 23.7396 6.59878Z" fill="#273F2B"/>
<circle cx="28.9779" cy="13.0594" r="4.98991" transform="rotate(141.535 28.9779 13.0594)" fill="#3DC712"/>
</svg>
