<svg width="40" height="40" viewBox="0 0 40 40" fill="none" xmlns="http://www.w3.org/2000/svg">
<path d="M8.42056 21.2471C8.42056 12.8314 13.2217 5.63892 19.999 2.75159C26.7761 5.63892 31.5773 12.8314 31.5773 21.2471C31.5773 22.6082 31.4516 23.9374 31.2124 25.2214L34.4219 28.2526C34.695 28.5105 34.76 28.9202 34.5801 29.2499L30.4526 36.8173C30.2337 37.2183 29.7314 37.366 29.3304 37.1473C29.2611 37.1094 29.1975 37.062 29.1417 37.006L25.4456 33.3099C25.1353 32.9998 24.7146 32.8254 24.276 32.8254H15.7219C15.2832 32.8254 14.8625 32.9998 14.5523 33.3099L10.8562 37.006C10.5332 37.3291 10.0096 37.3291 9.68657 37.006C9.63073 36.9501 9.58316 36.8866 9.54533 36.8173L5.4177 29.2499C5.23782 28.9202 5.30277 28.5105 5.57587 28.2526L8.78538 25.2214C8.54615 23.9374 8.42056 22.6082 8.42056 21.2471ZM10.8617 32.3221L12.2131 30.9707C13.1437 30.0402 14.4058 29.5173 15.7219 29.5173H24.276C25.592 29.5173 26.8542 30.0402 27.7847 30.9707L29.1361 32.3221L30.7602 29.3446L28.9411 27.6264C28.1238 26.8546 27.7545 25.7206 27.9602 24.6155C28.165 23.5169 28.2692 22.3904 28.2692 21.2471C28.2692 14.8466 24.9692 9.17205 19.999 6.42745C15.0286 9.17205 11.7287 14.8466 11.7287 21.2471C11.7287 22.3904 11.8328 23.5169 12.0375 24.6155C12.2434 25.7206 11.874 26.8546 11.0568 27.6264L9.23758 29.3446L10.8617 32.3221ZM19.999 21.2471C18.1719 21.2471 16.6908 19.766 16.6908 17.939C16.6908 16.112 18.1719 14.6309 19.999 14.6309C21.8259 14.6309 23.3071 16.112 23.3071 17.939C23.3071 19.766 21.8259 21.2471 19.999 21.2471Z" fill="#273F2B"/>
<circle cx="19.9989" cy="18.6813" r="4.98933" transform="rotate(141.535 19.9989 18.6813)" fill="#3DC712"/>
</svg>
