<svg width="40" height="40" viewBox="0 0 40 40" fill="none" xmlns="http://www.w3.org/2000/svg">
<path d="M32.4245 11.9689C32.4245 11.9689 32.4244 11.969 32.4245 11.9689C31.3327 11.8449 30.2816 11.3626 29.463 10.5438C29.4631 10.5435 29.4632 10.5433 29.4633 10.5431C30.2818 11.3621 31.3327 11.8447 32.4245 11.9689Z" fill="#273F2B"/>
<path d="M28.1458 5.80354C28.1461 5.80345 28.1465 5.80337 28.1469 5.80329C27.8783 6.88318 27.9717 8.04366 28.4497 9.08673C28.4494 9.0868 28.4491 9.08687 28.4488 9.08694C27.9707 8.0439 27.8773 6.88343 28.1458 5.80354Z" fill="#273F2B"/>
<path d="M24.6733 6.81127C9.96475 12.2112 7.2106 28.848 5.81276 37.2918C5.77712 37.5071 5.74236 37.7171 5.7083 37.9215H8.99012C10.0839 32.4473 12.8221 29.4363 17.2048 28.8885C23.7742 28.0674 28.7013 23.1403 30.3436 18.2132L28.7013 16.572C29.2483 16.0242 29.7954 15.4767 30.3481 14.9241C30.3544 14.9177 30.3608 14.9113 30.3672 14.9049C29.3006 14.5519 28.2969 13.9803 27.4286 13.1984C27.0781 13.5491 26.7276 13.9 26.377 14.251L24.0569 16.5745L26.4478 18.9636C24.5914 22.3878 20.925 25.1133 16.7974 25.6291C14.6352 25.8994 12.7597 26.6257 11.1843 27.7698C11.4735 26.8133 11.7968 25.8659 12.1777 24.8419C14.8764 17.5871 19.0118 12.5377 25.2542 10.0761C24.8372 9.02515 24.6462 7.9137 24.6733 6.81127Z" fill="#273F2B"/>
<circle cx="32.9891" cy="7.01095" r="4.98991" transform="rotate(141.535 32.9891 7.01095)" fill="#3DC712"/>
</svg>
