<svg width="40" height="40" viewBox="0 0 40 40" fill="none" xmlns="http://www.w3.org/2000/svg">
<path d="M25.293 5.07076C23.5789 4.46469 21.7343 4.1349 19.8126 4.1349C10.7355 4.1349 3.37708 11.4934 3.37708 20.5705C3.37708 29.6475 10.7355 37.006 19.8126 37.006C28.8897 37.006 36.2482 29.6475 36.2482 20.5705C36.2482 19.5924 36.1628 18.6342 35.9989 17.703C35.7184 17.8972 35.4228 18.0762 35.1128 18.2384C34.3888 18.6171 33.6346 18.8787 32.8718 19.0299C32.9308 19.5352 32.9611 20.0493 32.9611 20.5705C32.9611 27.8322 27.0744 33.7189 19.8126 33.7189C12.5509 33.7189 6.66419 27.8322 6.66419 20.5705C6.66419 13.3088 12.5509 7.42202 19.8126 7.42202C21.0835 7.42202 22.3122 7.60231 23.4746 7.93871C23.8728 6.88019 24.4864 5.90015 25.293 5.07076Z" fill="white"/>
<path d="M24.6926 15.9768L18.1734 22.4961L13.5247 17.8473L11.2004 20.1717L18.1734 27.1447L27.1925 18.1256C26.241 17.5937 25.3864 16.8708 24.6926 15.9768Z" fill="white"/>
<circle cx="31.2585" cy="10.8694" r="4.98991" transform="rotate(-117.615 31.2585 10.8694)" fill="#67EF3E"/>
</svg>
