<svg width="40" height="40" viewBox="0 0 40 40" fill="none" xmlns="http://www.w3.org/2000/svg">
<path d="M9.60523 15.6753C9.06751 15.7845 8.51094 15.8418 7.94098 15.8418C7.37169 15.8418 6.81576 15.7846 6.27863 15.6757V24.3245C6.81576 24.2155 7.37169 24.1583 7.94098 24.1583C8.51094 24.1583 9.06751 24.2156 9.60523 24.3248V15.6753Z" fill="#273F2B"/>
<path d="M15.8768 10.0203H24.1239C23.8766 9.23269 23.7432 8.39458 23.7432 7.52532C23.7432 7.24465 23.7571 6.96723 23.7843 6.6937H16.2164C16.2436 6.96723 16.2575 7.24465 16.2575 7.52532C16.2575 8.39458 16.1241 9.23269 15.8768 10.0203Z" fill="#273F2B"/>
<path d="M29.5649 15.4611C30.3525 15.7085 31.1905 15.8418 32.0597 15.8418C32.3404 15.8418 32.6179 15.8279 32.8915 15.8008V24.1994C32.6179 24.1722 32.3404 24.1583 32.0597 24.1583C31.1905 24.1583 30.3525 24.2916 29.5649 24.539V15.4611Z" fill="#273F2B"/>
<path d="M24.1239 29.98H15.8768C16.1241 30.7675 16.2575 31.6056 16.2575 32.4748C16.2575 32.7555 16.2436 33.033 16.2164 33.3066H23.7843C23.7571 33.033 23.7432 32.7555 23.7432 32.4748C23.7432 31.6056 23.8766 30.7675 24.1239 29.98Z" fill="#273F2B"/>
<circle cx="32.059" cy="7.52541" r="4.98991" fill="#3DC712"/>
<circle cx="32.059" cy="32.4747" r="4.98991" fill="#3DC712"/>
<circle cx="7.94098" cy="7.52533" r="4.98991" fill="#3DC712"/>
<circle cx="7.94095" cy="32.4747" r="4.98991" fill="#3DC712"/>
</svg>
