<svg width="40" height="40" viewBox="0 0 40 40" fill="none" xmlns="http://www.w3.org/2000/svg">
<path d="M25.5215 7.91066C27.6455 7.91066 29.3674 6.21306 29.3674 4.11899H31.1424C31.1424 6.21306 32.8642 7.91066 34.9882 7.91066V9.66065C32.8642 9.66065 31.1424 11.3582 31.1424 13.4523H29.3674C29.3674 11.3582 27.6455 9.66065 25.5215 9.66065V7.91066ZM5.01041 18.119C10.2387 18.119 14.4771 13.9403 14.4771 8.78566H17.6326C17.6326 13.9403 21.871 18.119 27.0993 18.119V21.2301C21.871 21.2301 17.6326 25.4088 17.6326 30.5634H14.4771C14.4771 25.4088 10.2387 21.2301 5.01041 21.2301V18.119ZM11.1259 19.6745C13.1946 20.8064 14.9069 22.4945 16.0549 24.5341C17.2028 22.4945 18.9151 20.8064 20.9838 19.6745C18.9151 18.5427 17.2028 16.8546 16.0549 14.815C14.9069 16.8546 13.1946 18.5427 11.1259 19.6745Z" fill="white"/>
<circle cx="27.9782" cy="31.8898" r="4.98991" transform="rotate(-128.465 27.9782 31.8898)" fill="#67EF3E"/>
</svg>
