<svg width="40" height="40" viewBox="0 0 40 40" fill="none" xmlns="http://www.w3.org/2000/svg">
<path d="M18.4832 4.48288L18.4833 7.61344C12.3447 8.37889 7.59445 13.6155 7.59445 19.9616C7.59445 26.8345 13.166 32.406 20.0389 32.406C22.9146 32.406 25.5625 31.4307 27.6697 29.7927L29.8838 32.0059C27.2022 34.2005 23.7744 35.5171 20.0389 35.5171C11.4478 35.5171 4.48334 28.5527 4.48334 19.9616C4.48334 11.8956 10.6225 5.26341 18.4832 4.48288ZM35.5176 21.5173C35.207 24.6455 33.9697 27.501 32.084 29.8056L29.8698 27.5925C31.2079 25.8711 32.1038 23.7893 32.3871 21.5171L35.5176 21.5173ZM21.5962 4.48304C28.9444 5.21342 34.7879 11.0575 35.5176 18.4058L32.3871 18.4062C31.6852 12.7775 27.2243 8.31617 21.596 7.61362L21.5962 4.48304Z" fill="white"/>
<circle cx="20.0388" cy="20.0001" r="5.06884" transform="rotate(-128.465 20.0388 20.0001)" fill="#67EF3E"/>
</svg>
