<svg width="40" height="40" viewBox="0 0 40 40" fill="none" xmlns="http://www.w3.org/2000/svg">
<path fill-rule="evenodd" clip-rule="evenodd" d="M13.4726 10.4019V5.73524C13.4726 4.87614 14.169 4.17969 15.0281 4.17969H33.6948C34.5539 4.17969 35.2503 4.87614 35.2503 5.73524V27.513C35.2503 28.3722 34.5539 29.0686 33.6948 29.0686H29.0281V33.7338C29.0281 34.5938 28.3283 35.2908 27.462 35.2908H16.797C17.0961 34.2838 17.206 33.2275 17.12 32.1797H25.917V13.513H10.3655L10.3635 24.5953C9.34217 24.3907 8.2862 24.3746 7.25235 24.5535L7.25469 11.9588C7.25484 11.099 7.95475 10.4019 8.82085 10.4019H13.4726ZM16.5837 10.4019H29.0281V25.9575H32.1392V7.2908H16.5837V10.4019Z" fill="white"/>
<circle cx="8.69947" cy="32.8782" r="5.06884" transform="rotate(-128.465 8.69947 32.8782)" fill="#67EF3E"/>
</svg>
