<svg width="40" height="40" viewBox="0 0 40 40" fill="none" xmlns="http://www.w3.org/2000/svg">
<path d="M17.0264 11.6838C16.8043 10.5899 16.8044 9.45103 17.0264 8.35718H2.78503V11.6838C7.53213 11.6838 12.2792 11.6838 17.0264 11.6838Z" fill="white"/>
<path d="M37.7144 18.3367V21.6633H15.4246C15.6466 20.5695 15.6467 19.4306 15.4247 18.3367C22.8546 18.3367 30.2845 18.3367 37.7144 18.3367Z" fill="white"/>
<path d="M33.3267 11.6838C33.5488 10.5899 33.5487 9.45103 33.3267 8.35718H37.7144V11.6838H33.3267Z" fill="white"/>
<path d="M22.016 28.3165H2.78503V31.6431H22.016C21.7939 30.5493 21.7939 29.4104 22.016 28.3165Z" fill="white"/>
<circle cx="25.1762" cy="10.0206" r="4.98991" transform="rotate(90 25.1762 10.0206)" fill="#67EF3E"/>
<circle cx="7.27547" cy="20" r="4.98991" transform="rotate(90 7.27547 20)" fill="#67EF3E"/>
<circle cx="30.1665" cy="29.98" r="4.98991" transform="rotate(90 30.1665 29.98)" fill="#67EF3E"/>
</svg>
