<svg width="40" height="40" viewBox="0 0 40 40" fill="none" xmlns="http://www.w3.org/2000/svg">
<g clip-path="url(#clip0_30_1257)">
<circle cx="5.25468" cy="12.4926" r="4.98991" transform="rotate(141.535 5.25468 12.4926)" fill="#67EF3E"/>
<circle cx="34.7443" cy="12.4926" r="4.98991" transform="rotate(141.535 34.7443 12.4926)" fill="#67EF3E"/>
<path fill-rule="evenodd" clip-rule="evenodd" d="M20.1906 8.08635C17.9585 8.08635 16.149 9.89587 16.149 12.128C16.149 14.3602 17.9585 16.1697 20.1906 16.1697C22.4228 16.1697 24.2323 14.3602 24.2323 12.128C24.2323 9.89587 22.4228 8.08635 20.1906 8.08635ZM12.949 12.128C12.949 8.12856 16.1912 4.88635 20.1906 4.88635C24.1901 4.88635 27.4323 8.12856 27.4323 12.128C27.4323 16.1275 24.1901 19.3697 20.1906 19.3697C16.1912 19.3697 12.949 16.1275 12.949 12.128Z" fill="white"/>
<path d="M9.13855 19.7068C9.5595 19.4798 9.96634 19.2127 10.3539 18.9048C10.826 18.5298 11.2456 18.1132 11.6117 17.6645C12.8187 19.3308 13.6874 20.9671 14.2972 22.6346C15.3476 25.5074 15.5865 28.3589 15.5865 31.401V36.8599H12.3865V31.401C12.3865 28.5165 12.1556 26.0958 11.2918 23.7336C10.8136 22.4259 10.1282 21.1009 9.13855 19.7068Z" fill="white"/>
<path d="M28.6006 17.9051C29.3327 18.7377 30.2009 19.3882 31.1453 19.8497C30.2095 21.1916 29.5544 22.4707 29.0926 23.7336C28.2288 26.0958 27.9979 28.5165 27.9979 31.401V36.8599H24.7979V31.401C24.7979 28.3589 25.0368 25.5074 26.0872 22.6346C26.6676 21.0474 27.4826 19.4885 28.6006 17.9051Z" fill="white"/>
</g>
<defs>
<clipPath id="clip0_30_1257">
<rect width="40" height="40" fill="white"/>
</clipPath>
</defs>
</svg>
