<svg width="40" height="40" viewBox="0 0 40 40" fill="none" xmlns="http://www.w3.org/2000/svg">
<path d="M27.1 5.40555C31.8927 5.40555 35.7778 9.34999 35.7778 14.8722C35.7778 25.9167 23.9445 32.2278 20 34.5944C16.0556 32.2278 4.22223 25.9167 4.22223 14.8722C4.22223 9.34999 8.16667 5.40555 12.9 5.40555C15.8346 5.40555 18.4222 6.98333 20 8.5611C21.5778 6.98333 24.1653 5.40555 27.1 5.40555ZM21.4735 30.0249C22.8645 29.1487 24.118 28.2762 25.2933 27.3412C29.9932 23.6021 32.6222 19.5164 32.6222 14.8722C32.6222 11.1499 30.1972 8.5611 27.1 8.5611C25.4025 8.5611 23.5647 9.45903 22.2313 10.7924L20 13.0237L17.7687 10.7924C16.4353 9.45903 14.5975 8.5611 12.9 8.5611C9.83763 8.5611 7.37778 11.1747 7.37778 14.8722C7.37778 19.5164 10.0068 23.6021 14.7068 27.3412C15.882 28.2762 17.1356 29.1487 18.5265 30.0249C18.9975 30.3217 19.4653 30.6072 20 30.9264C20.5347 30.6072 21.0025 30.3217 21.4735 30.0249Z" fill="white"/>
<circle cx="19.9995" cy="19.6055" r="4.98991" transform="rotate(-117.615 19.9995 19.6055)" fill="#67EF3E"/>
</svg>
