<svg width="40" height="40" viewBox="0 0 40 40" fill="none" xmlns="http://www.w3.org/2000/svg">
<path d="M5.71719 30.3154V8.89116C5.71719 6.26177 7.84874 4.13022 10.4781 4.13022H32.6958C33.5723 4.13022 34.2828 4.84074 34.2828 5.7172V34.2828C34.2828 35.1593 33.5723 35.8698 32.6958 35.8698H11.2716C8.20398 35.8698 5.71719 33.383 5.71719 30.3154ZM31.1089 32.6958V27.9349H11.2716C9.95691 27.9349 8.89114 29.0007 8.89114 30.3154C8.89114 31.63 9.95691 32.6958 11.2716 32.6958H31.1089ZM8.89114 25.2954C9.61263 24.9527 10.4197 24.7609 11.2716 24.7609H31.1089V7.30418H10.4781C9.60167 7.30418 8.89114 8.0147 8.89114 8.89116V25.2954Z" fill="white"/>
<circle cx="19.9995" cy="16.4432" r="4.98991" transform="rotate(-128.465 19.9995 16.4432)" fill="#67EF3E"/>
</svg>
