<svg width="40" height="40" viewBox="0 0 40 40" fill="none" xmlns="http://www.w3.org/2000/svg">
<path d="M24.8638 5.15588C24.864 5.15595 24.8641 5.15601 24.8643 5.15607C24.9471 5.51659 24.9909 5.89201 24.9909 6.27765C24.9909 7.10733 24.7884 7.88971 24.4301 8.57808C24.4302 8.57814 24.43 8.57802 24.4301 8.57808C24.7884 7.88971 24.9909 7.10733 24.9909 6.27765C24.9909 5.89196 24.9466 5.51644 24.8638 5.15588Z" fill="white"/>
<path d="M11.6862 6.44985C9.59506 7.75131 7.84837 9.55413 6.61419 11.6902C7.82689 11.7385 8.9728 12.0464 9.99785 12.5599C10.6946 11.551 11.5466 10.6574 12.5193 9.91363C12.0081 8.86371 11.7114 7.69011 11.6862 6.44985Z" fill="white"/>
<path d="M27.2322 10.3883C27.8126 9.36957 28.1839 8.21622 28.2877 6.9867C30.0454 8.24466 31.5195 9.87361 32.5956 11.7591C31.436 11.916 30.3523 12.312 29.3958 12.8956C28.7962 11.9599 28.0665 11.1156 27.2322 10.3883Z" fill="white"/>
<path d="M28.5922 26.5469C27.9807 27.2925 27.2784 27.9609 26.5022 28.535C27.1995 29.4079 27.7247 30.4243 28.0264 31.5329C29.4154 30.5828 30.6361 29.4047 31.6347 28.0526C30.5108 27.7622 29.4791 27.2427 28.5922 26.5469Z" fill="white"/>
<path d="M33.3854 24.9788C32.2086 24.9006 31.1435 24.4144 30.3301 23.6604C30.3301 23.6605 30.3302 23.6603 30.3301 23.6604C31.1435 24.4144 32.2086 24.9006 33.3854 24.9788C33.3854 24.9788 33.3854 24.9788 33.3854 24.9788Z" fill="white"/>
<path d="M30.7827 15.9672C30.7827 15.9673 30.7826 15.9672 30.7827 15.9672Z" fill="white"/>
<path d="M24.9579 33.145C24.958 33.145 24.9577 33.1451 24.9579 33.145C24.823 31.9731 24.2817 30.925 23.4791 30.1444C23.479 30.1444 23.4792 30.1444 23.4791 30.1444C24.2817 30.925 24.823 31.9731 24.9579 33.145Z" fill="white"/>
<path d="M13.2135 28.915C12.5688 29.8237 12.102 30.8676 11.8638 31.9957C10.2289 31.0095 8.79791 29.7196 7.64888 28.2041C8.83459 28.0074 9.93555 27.5599 10.8954 26.9178C11.576 27.6804 12.3554 28.3528 13.2135 28.915Z" fill="white"/>
<path d="M5.77917 24.9654C5.77919 24.9654 5.77916 24.9653 5.77917 24.9654Z" fill="white"/>
<path d="M5.16511 15.1347C5.16511 15.1347 5.16511 15.1347 5.16511 15.1347Z" fill="white"/>
<circle cx="6.27776" cy="20.0002" r="4.98991" fill="#67EF3E"/>
<circle cx="20" cy="6.27766" r="4.98991" transform="rotate(90 20 6.27766)" fill="#67EF3E"/>
<circle cx="33.7222" cy="20.0002" r="4.98991" fill="#67EF3E"/>
<circle cx="20" cy="33.7221" r="4.98991" transform="rotate(90 20 33.7221)" fill="#67EF3E"/>
</svg>
