<svg width="40" height="40" viewBox="0 0 40 40" fill="none" xmlns="http://www.w3.org/2000/svg">
<path d="M33.5714 12.7778H35V27.2222H33.5714V31.5556C33.5714 31.9386 33.4209 32.306 33.153 32.5769C32.8851 32.8478 32.5217 33 32.1429 33H6.42857C6.04969 33 5.68633 32.8478 5.41842 32.5769C5.15051 32.306 5 31.9386 5 31.5556V8.44444C5 8.06135 5.15051 7.69395 5.41842 7.42307C5.68633 7.15218 6.04969 7 6.42857 7H32.1429C32.5217 7 32.8851 7.15218 33.153 7.42307C33.4209 7.69395 33.5714 8.06135 33.5714 8.44444V12.7778ZM30.7143 27.2222H22.1429C20.2485 27.2222 18.4316 26.4613 17.0921 25.1069C15.7525 23.7525 15 21.9155 15 20C15 18.0845 15.7525 16.2475 17.0921 14.8931C18.4316 13.5387 20.2485 12.7778 22.1429 12.7778H30.7143V9.88889H7.85714V30.1111H30.7143V27.2222ZM32.1429 24.3333V15.6667H22.1429C21.0062 15.6667 19.9161 16.1232 19.1124 16.9359C18.3087 17.7485 17.8571 18.8507 17.8571 20C17.8571 21.1493 18.3087 22.2515 19.1124 23.0641C19.9161 23.8768 21.0062 24.3333 22.1429 24.3333H32.1429ZM22.1429 18.5556H26.4286V21.4444H22.1429V18.5556Z" fill="#273F2B"/>
</svg>
