<svg width="40" height="40" viewBox="0 0 40 40" fill="none" xmlns="http://www.w3.org/2000/svg">
<path d="M20 35C11.7157 35 5 28.2842 5 20C5 11.7157 11.7157 5 20 5C28.2842 5 35 11.7157 35 20C35 28.2842 28.2842 35 20 35ZM20 32C26.6275 32 32 26.6275 32 20C32 13.3726 26.6275 8 20 8C13.3726 8 8 13.3726 8 20C8 26.6275 13.3726 32 20 32ZM18.5 21.188C17.1755 20.6093 16.25 19.2878 16.25 17.75C16.25 15.6789 17.929 14 20 14C22.071 14 23.75 15.6789 23.75 17.75C23.75 19.2878 22.8245 20.6093 21.5 21.188V26H18.5V21.188Z" fill="#273F2B"/>
</svg>
