<svg width="40" height="40" viewBox="0 0 40 40" fill="none" xmlns="http://www.w3.org/2000/svg">
<path d="M19.7918 5.75159C21.2744 4.76866 23.2006 4.74828 24.7039 5.69962L30.9368 9.64397H33.5C34.3284 9.64397 35 10.3118 35 11.1357V24.5608C35 25.3847 34.3284 26.0525 33.5 26.0525H31.2204C31.3097 27.4656 30.6402 28.9021 29.2935 29.7057L21.6533 34.2645C20.6888 34.8398 19.4915 34.8264 18.5472 34.2531C17.4968 35.1769 15.8798 35.2787 14.7067 34.362L6.99544 28.3368C5.84581 27.4386 5.5551 25.904 6.1487 24.6873C5.42372 24.122 5 23.2564 5 22.3397V11.1358C5 10.3119 5.67159 9.64406 6.50002 9.64406H13.9205L19.7918 5.75159ZM8.25899 22.5401L9.29705 21.6368C11.1424 20.031 13.9407 20.19 15.5901 21.9944L19.6434 26.4283C20.9477 27.8551 21.1856 29.9512 20.237 31.6301L27.75 27.1474C28.1721 26.8956 28.3248 26.3922 28.1674 25.9681L21.5267 16.7229C21.1537 16.2036 20.4898 15.9778 19.875 16.1612L16.1471 17.2733C14.5615 17.7463 12.8426 17.3154 11.6721 16.1514L11.2329 15.7146C10.3809 14.8673 10.1605 13.6615 10.5191 12.6275H8.00003V22.3397L8.25899 22.5401ZM23.0933 8.2166C22.5922 7.89948 21.9502 7.90627 21.4559 8.23392L13.3542 13.6051L13.7934 14.0418C14.1836 14.4298 14.7565 14.5735 15.2851 14.4158L19.013 13.3036C20.8571 12.7534 22.849 13.4309 23.968 14.9888L29.7718 23.0692H32V12.6274H30.9368C30.3662 12.6274 29.8074 12.4656 29.326 12.161L23.0933 8.2166ZM11.2726 23.882L8.84893 25.9909L16.5602 32.0162L17.616 30.1786C17.9385 29.6174 17.8608 28.9135 17.4236 28.4351L13.3703 24.0012C12.8205 23.3997 11.8877 23.3468 11.2726 23.882Z" fill="#273F2B"/>
</svg>
