<svg width="40" height="40" viewBox="0 0 40 40" fill="none" xmlns="http://www.w3.org/2000/svg">
<path d="M18.1758 23.3488V26.3256C13.1324 26.3256 9.04394 30.3238 9.04394 35.2558H6C6 28.6797 11.4513 23.3488 18.1758 23.3488ZM18.1758 21.8605C13.1304 21.8605 9.04394 17.8642 9.04394 12.9302C9.04394 7.99628 13.1304 4 18.1758 4C23.2211 4 27.3076 7.99628 27.3076 12.9302C27.3076 17.8642 23.2211 21.8605 18.1758 21.8605ZM18.1758 18.8837C21.5393 18.8837 24.2636 16.2195 24.2636 12.9302C24.2636 9.64093 21.5393 6.97674 18.1758 6.97674C14.8122 6.97674 12.0879 9.64093 12.0879 12.9302C12.0879 16.2195 14.8122 18.8837 18.1758 18.8837ZM22.1247 30.5101C22.0305 30.1226 21.9807 29.7182 21.9807 29.3023C21.9807 28.8866 22.0305 28.4822 22.1245 28.0947L20.6153 27.2426L22.1373 24.6646L23.6476 25.5172C24.2458 24.9639 24.9753 24.5446 25.7856 24.3087V22.6047H28.8296V24.3087C29.6399 24.5446 30.3692 24.9639 30.9675 25.5172L32.4779 24.6644L34 27.2424L32.4907 28.0945C32.5847 28.4822 32.6345 28.8866 32.6345 29.3023C32.6345 29.718 32.5847 30.1224 32.4907 30.51L34 31.3621L32.478 33.9401L30.9676 33.0873C30.3693 33.6408 29.64 34.0601 28.8297 34.2958V36H25.7858V34.296C24.9755 34.0602 24.246 33.6409 23.6477 33.0874L22.1375 33.9402L20.6153 31.3622L22.1247 30.5101ZM27.3076 31.5349C28.5684 31.5349 29.5905 30.5353 29.5905 29.3023C29.5905 28.0694 28.5684 27.0698 27.3076 27.0698C26.0468 27.0698 25.0246 28.0694 25.0246 29.3023C25.0246 30.5353 26.0468 31.5349 27.3076 31.5349Z" fill="white"/>
</svg>
