<svg width="40" height="40" viewBox="0 0 40 40" fill="none" xmlns="http://www.w3.org/2000/svg">
<path d="M4 36C4 29.2674 9.45786 23.8095 16.1905 23.8095C22.9231 23.8095 28.381 29.2674 28.381 36H25.3333C25.3333 30.9506 21.2399 26.8571 16.1905 26.8571C11.141 26.8571 7.04762 30.9506 7.04762 36H4ZM16.1905 22.2857C11.139 22.2857 7.04762 18.1943 7.04762 13.1429C7.04762 8.09143 11.139 4 16.1905 4C21.2419 4 25.3333 8.09143 25.3333 13.1429C25.3333 18.1943 21.2419 22.2857 16.1905 22.2857ZM16.1905 19.2381C19.5581 19.2381 22.2857 16.5105 22.2857 13.1429C22.2857 9.77524 19.5581 7.04762 16.1905 7.04762C12.8229 7.04762 10.0952 9.77524 10.0952 13.1429C10.0952 16.5105 12.8229 19.2381 16.1905 19.2381ZM28.8133 24.8805C33.0505 26.7902 36 31.0507 36 36H32.9524C32.9524 32.288 30.7403 29.0927 27.5624 27.6603L28.8133 24.8805ZM27.7656 7.67727C30.8105 8.93262 32.9524 11.9293 32.9524 15.4286C32.9524 19.8022 29.6064 23.3908 25.3333 23.7754V20.708C27.9188 20.3386 29.9048 18.1166 29.9048 15.4286C29.9048 13.3247 28.6882 11.5063 26.9196 10.6382L27.7656 7.67727Z" fill="white"/>
</svg>
