<svg width="40" height="40" viewBox="0 0 40 40" fill="none" xmlns="http://www.w3.org/2000/svg">
<path d="M8 36C8 29.2674 13.3726 23.8095 20 23.8095C26.6275 23.8095 32 29.2674 32 36H8ZM21.5 26.9836V32.9524H28.4879C27.4134 29.8644 24.7526 27.5378 21.5 26.9836ZM18.5 32.9524V26.9836C15.2475 27.5378 12.5865 29.8644 11.5121 32.9524H18.5ZM20 22.2857C15.0275 22.2857 11 18.1943 11 13.1429C11 8.09143 15.0275 4 20 4C24.9725 4 29 8.09143 29 13.1429C29 18.1943 24.9725 22.2857 20 22.2857ZM20 19.2381C23.3156 19.2381 26 16.5111 26 13.1429C26 9.77458 23.3156 7.04762 20 7.04762C16.6844 7.04762 14 9.77458 14 13.1429C14 16.5111 16.6844 19.2381 20 19.2381Z" fill="white"/>
</svg>
