<svg width="40" height="40" viewBox="0 0 40 40" fill="none" xmlns="http://www.w3.org/2000/svg">
<path d="M8 36C8 29.2674 13.3726 23.8095 20 23.8095C26.6275 23.8095 32 29.2674 32 36H29C29 30.9506 24.9705 26.8571 20 26.8571C15.0294 26.8571 11 30.9506 11 36H8ZM20 22.2857C15.0275 22.2857 11 18.1943 11 13.1429C11 8.09143 15.0275 4 20 4C24.9725 4 29 8.09143 29 13.1429C29 18.1943 24.9725 22.2857 20 22.2857ZM20 19.2381C23.315 19.2381 26 16.5105 26 13.1429C26 9.77524 23.315 7.04762 20 7.04762C16.685 7.04762 14 9.77524 14 13.1429C14 16.5105 16.685 19.2381 20 19.2381Z" fill="white"/>
</svg>
