<svg width="330" height="120" viewBox="0 0 330 120" fill="none" xmlns="http://www.w3.org/2000/svg">
<path fill-rule="evenodd" clip-rule="evenodd" d="M60.188 120C93.429 120 120.376 93.1371 120.376 60C120.376 26.8629 93.429 0 60.188 0C26.9471 0 0 26.8629 0 60C0 93.1371 26.9471 120 60.188 120ZM46.3671 26.7398C50.7484 24.9307 55.4442 23.9996 60.1864 23.9996C64.9287 23.9996 69.6245 24.9307 74.0058 26.7398C78.387 28.549 82.3679 31.2006 85.7212 34.5434C89.0745 37.8862 91.7344 41.8547 93.5492 46.2223C95.364 50.5898 96.298 55.271 96.298 59.9984C96.298 64.7258 95.364 69.407 93.5492 73.7745C91.7344 78.1421 89.0745 82.1106 85.7212 85.4534C82.3679 88.7962 78.387 91.4478 74.0057 93.2569C69.6245 95.066 64.9287 95.9972 60.1864 95.9972C55.4442 95.9972 50.7484 95.066 46.3671 93.2569C41.9858 91.4478 38.0049 88.7962 34.6517 85.4534C31.2984 82.1106 28.6384 78.1421 26.8236 73.7745C25.0089 69.4069 24.0748 64.7258 24.0748 59.9984C24.0748 55.2709 25.0089 50.5898 26.8236 46.2222C28.6384 41.8547 31.2984 37.8862 34.6517 34.5434C38.0049 31.2006 41.9859 28.5489 46.3671 26.7398ZM60.1864 12C53.8634 12 47.6024 13.2415 41.7607 15.6537C35.919 18.0658 30.6111 21.6013 26.1401 26.0584C21.669 30.5155 18.1224 35.8068 15.7027 41.6302C13.283 47.4536 12.0376 53.6951 12.0376 59.9984C12.0376 66.3016 13.283 72.5431 15.7027 78.3666C18.1224 84.19 21.669 89.4813 26.1401 93.9384C30.6111 98.3954 35.919 101.931 41.7607 104.343C47.6024 106.755 53.8634 107.997 60.1864 107.997C66.5094 107.997 72.7705 106.755 78.6122 104.343C84.4539 101.931 89.7617 98.3954 94.2328 93.9384C98.7038 89.4813 102.25 84.19 104.67 78.3666C107.09 72.5432 108.335 66.3016 108.335 59.9984C108.335 53.6952 107.09 47.4536 104.67 41.6302C102.25 35.8068 98.7038 30.5155 94.2328 26.0584C89.7618 21.6013 84.4539 18.0658 78.6122 15.6537C72.7705 13.2415 66.5094 12 60.1864 12Z" fill="white"/>
<path d="M171.106 98.4508C148.544 98.4508 133.824 84.0508 133.824 62.3822C133.824 40.7136 148.544 26.3136 171.106 26.3136C193.668 26.3136 208.388 40.7136 208.388 62.3822C208.388 84.1879 193.668 98.4508 171.106 98.4508ZM171.106 82.6793C181.974 82.6793 188.715 74.3136 188.715 62.3822C188.715 50.4508 181.974 42.085 171.106 42.085C160.237 42.085 153.634 50.4508 153.634 62.3822C153.634 74.3136 160.237 82.6793 171.106 82.6793Z" fill="white"/>
<path d="M253.664 27.1365H256.966V44.6908H249.262C237.706 44.6908 233.304 52.3708 233.304 63.0679V97.6279H213.906V27.1365H231.515L233.304 37.6965C237.156 31.3879 242.659 27.1365 253.664 27.1365Z" fill="white"/>
<path d="M292.718 98.4508C270.156 98.4508 255.436 84.0508 255.436 62.3822C255.436 40.7136 270.156 26.3136 292.718 26.3136C315.28 26.3136 330 40.7136 330 62.3822C330 84.1879 315.28 98.4508 292.718 98.4508ZM292.718 82.6793C303.586 82.6793 310.327 74.3136 310.327 62.3822C310.327 50.4508 303.586 42.085 292.718 42.085C281.85 42.085 275.246 50.4508 275.246 62.3822C275.246 74.3136 281.85 82.6793 292.718 82.6793Z" fill="white"/>
</svg>
