<svg width="86" height="24" viewBox="0 0 86 24" fill="none" xmlns="http://www.w3.org/2000/svg">
<path d="M67.2167 1.60608C67.2167 0.888231 66.6434 0.30536 65.9299 0.30536H64.021C63.3075 0.30536 62.7342 0.888231 62.7342 1.60608V21.6814C62.7342 22.3993 63.3075 22.9821 64.021 22.9821H65.9299C66.6434 22.9821 67.2167 22.3993 67.2167 21.6814V1.60608ZM69.65 2.13987V3.09087C69.65 3.48355 69.9732 3.80259 70.3635 3.80259H83.5302C84.1279 3.80259 84.6158 3.31789 84.6158 2.71047V1.09684C84.6158 0.489425 84.1218 -0.056634 83.5241 0.00472096C83.5241 0.00472096 70.7965 1.2625 70.3879 1.30545C69.9183 1.3668 69.65 1.7472 69.65 2.13987ZM58.9897 22.9883C55.7148 22.9883 53.6535 20.4911 53.6535 17.7056V9.67426H52.7143C52.2143 9.67426 51.8118 9.26932 51.8118 8.76621V7.42253C51.8118 6.91942 52.2204 6.51448 52.7204 6.51448H53.6535V1.57541C53.6535 0.87596 54.2146 0.311496 54.9098 0.311496H56.7699C57.4651 0.311496 58.0262 0.882096 58.0262 1.58154V6.51448H60.9291C61.4291 6.51448 61.8378 6.91942 61.8378 7.42253V8.76621C61.8378 9.26932 61.4352 9.67426 60.9352 9.67426H58.0323V17.1043C58.0323 18.5646 58.9104 19.5585 60.4839 19.5585H60.7461C61.2889 19.5585 61.728 20.0003 61.728 20.5464V22.0066C61.728 22.5527 61.2889 22.9944 60.7461 22.9944L58.9897 22.9883ZM28.3263 9.37362C30.2839 9.37362 31.9671 10.7725 32.1379 12.6622H24.5452C24.7099 10.7725 26.3687 9.37362 28.3263 9.37362V5.93774C23.0328 5.93774 20.0628 10.1037 20.0628 14.4968C20.0628 19.1781 23.2401 23.3012 28.3629 23.3012C31.8635 23.3012 35.3213 21.4421 35.9678 18.3928C36.0532 17.9817 35.7787 17.4418 35.2055 17.4418H32.7051C32.2477 17.4418 31.8757 17.6627 31.6561 17.994C30.9426 19.0493 29.8875 19.6138 28.3385 19.6138C26.143 19.6138 24.6245 17.8774 24.5147 15.9509H35.1567C36.1385 15.9509 36.5776 15.4171 36.5776 14.5029C36.5776 10.2203 34.0589 5.94388 28.3324 5.94388L28.3263 9.37362ZM76.8279 9.37362C78.7795 9.37362 80.4688 10.7725 80.6395 12.6622H73.0468C73.2115 10.7725 74.8703 9.37362 76.8279 9.37362V5.93774C71.5344 5.93774 68.5644 10.1037 68.5644 14.4968C68.5644 19.1781 71.7479 23.3012 76.8645 23.3012C80.3651 23.3012 83.8168 21.4421 84.4694 18.3928C84.5548 17.9817 84.2803 17.4418 83.7071 17.4418H81.2067C80.7554 17.4418 80.3834 17.6627 80.1577 17.994C79.4442 19.0493 78.3953 19.6138 76.8401 19.6138C74.6508 19.6138 73.1261 17.8774 73.0103 15.9509H83.6583C84.6401 15.9509 85.0792 15.4171 85.0792 14.5029C85.0792 10.2203 82.5606 5.94388 76.834 5.94388L76.8279 9.37362Z" fill="#67EF3E"/>
<path d="M50.075 0.528625H15.6C14.8133 0.528625 14.1852 1.16672 14.1852 1.9582L14.3011 15.579C14.3011 15.579 6.87305 2.0809 6.48274 1.38759C6.11683 0.743367 5.33622 0.14209 4.25678 0.14209H1.42096C0.640349 0.14209 0 0.78018 0 1.57166V21.5488C0 22.3342 0.63425 22.9784 1.42096 22.9784H3.23832C4.02503 22.9784 4.65928 22.3342 4.65928 21.5488L4.54341 7.54149C4.54341 7.54149 12.0446 21.1807 12.3617 21.7145C12.7947 22.4385 13.5265 22.9784 14.5877 22.9784H17.1918C17.9785 22.9784 18.6127 22.3342 18.6127 21.5488V3.90928H50.0812C50.6178 3.90928 51.0508 3.47366 51.0508 2.93374V1.4919C51.0447 0.964246 50.6117 0.528625 50.075 0.528625Z" fill="#67EF3E"/>
<path d="M47.5228 10.7004C47.1203 9.75552 45.9982 9.20946 44.4979 9.20946C43.0953 9.20946 41.9671 9.62667 41.9732 10.8599C41.9732 11.6637 42.8452 11.9704 43.7844 12.2158C44.3089 12.3508 46.73 12.9705 47.7363 13.2282C50.3099 13.8847 51.8894 15.529 51.8894 17.9096C51.8894 22.0204 47.6509 23.2904 44.6077 23.2904C40.3144 23.2904 37.2041 20.8424 37.2041 18.5109V18.2409C37.2041 17.7623 37.6249 17.4433 37.9908 17.4433H40.0826C40.7108 17.4433 41.1194 17.5292 41.3572 18.1182C41.7597 19.1367 43.1807 19.7748 44.6016 19.7748C46.108 19.7748 47.4801 19.3269 47.4801 18.0139C47.4801 17.1856 46.6141 16.8911 45.6506 16.6334C44.7602 16.4003 42.9184 15.9401 41.8451 15.6579C39.485 15.0382 37.5639 13.5841 37.5639 11.136C37.5639 7.93941 40.3083 5.93311 44.4979 5.93311C48.5474 5.93311 51.4015 8.08666 51.4015 10.4979C51.4015 10.9458 51.0112 11.2403 50.6697 11.2403H48.6084C48.09 11.2403 47.718 11.1544 47.5228 10.7004Z" fill="#67EF3E"/>
</svg>
